<svg xmlns="http://www.w3.org/2000/svg" xmlns:xlink="http://www.w3.org/1999/xlink" width="277px" height="37px" viewBox="0 0 277 37"><title>Logo</title><g id="Symbols" stroke="none" stroke-width="1" fill="none" fill-rule="evenodd"><g id="Navigation/Desktop" transform="translate(-38.000000, -30.000000)"><g id="Logo" transform="translate(38.000000, 30.000000)"><g id="Group-46" transform="translate(0.000000, 0.162000)"><path d="M66.0220422,29.1532737 C67.843259,27.1188 68.7319867,24.7679053 68.6877598,22.0105895 C68.6435329,19.2978 67.6663514,16.9923789 65.7557497,15.0483789 C63.8898405,13.1048526 61.6235615,12.1105895 58.9126859,12.1105895 C56.3358876,12.1105895 54.114301,13.0593789 52.2930842,15.0033789 C50.4718674,16.9473789 49.4951514,19.2528 49.4499934,21.9646421 C49.3610741,24.8129053 50.2940287,27.2992737 52.2930842,29.4242211 C54.2935363,31.5032211 56.647338,32.4974842 59.4024405,32.3624842 C62.0230002,32.2274842 64.2008254,31.1872737 66.0220422,29.1532737 L66.0220422,29.1532737 Z M46.0291598,22.0551158 L46.0291598,0.311589474 L49.3610741,0.311589474 L49.3610741,13.3308 C51.8489531,10.3930105 54.9597329,8.90043158 58.6906203,8.76495789 C62.3344506,8.62948421 65.4885262,9.89516842 68.1104825,12.6074842 C70.7762002,15.3198 72.109059,18.5294842 72.109059,22.2815368 C72.109059,25.8981158 70.8646539,29.0173263 68.4210018,31.6391684 C65.9778153,34.2610105 62.9564203,35.6176421 59.4466674,35.7535895 C55.8028371,35.8890632 52.6487615,34.5774316 49.9392825,31.8655895 C47.2284069,29.1532737 45.939775,25.9431158 46.0291598,22.2365368 L46.0291598,22.0551158 Z" id="Fill-31" fill="#000000" fill-rule="nonzero"></path><path d="M75.0386017,35.7522632 L78.370516,35.7522632 L78.370516,8.76457895 L75.0386017,8.76457895 L75.0386017,35.7522632 Z M75.0386017,6.32368421 L78.370516,6.32368421 L78.370516,0.311684211 L75.0386017,0.311684211 L75.0386017,6.32368421 Z" id="Fill-32" fill="#000000"></path><path d="M102.006623,29.1532737 C103.828771,27.1188 104.717499,24.7679053 104.672341,22.0105895 C104.627649,19.2978 103.650002,16.9923789 101.740331,15.0483789 C99.8734906,13.1048526 97.6081427,12.1105895 94.8981982,12.1105895 C92.3213998,12.1105895 90.0998133,13.0593789 88.2776654,15.0033789 C86.4564486,16.9473789 85.4788015,19.2528 85.4341091,21.9646421 C85.3456553,24.8129053 86.2786099,27.2992737 88.2776654,29.4242211 C90.2767208,31.5032211 92.6319192,32.4974842 95.3860906,32.3624842 C98.0080469,32.2274842 100.184475,31.1872737 102.006623,29.1532737 L102.006623,29.1532737 Z M82.0128099,22.0551158 L82.0128099,0.311589474 L85.3456553,0.311589474 L85.3456553,13.3308 C87.8335343,10.3930105 90.943383,8.90043158 94.6761326,8.76495789 C98.3190318,8.62948421 101.473573,9.89516842 104.094133,12.6074842 C106.75985,15.3198 108.09364,18.5294842 108.09364,22.2815368 C108.09364,25.8981158 106.849235,29.0173263 104.405583,31.6391684 C101.962396,34.2610105 98.9410015,35.6176421 95.430783,35.7535895 C91.7883494,35.8890632 88.6333427,34.5774316 85.9229326,31.8655895 C83.2129881,29.1532737 81.9243561,25.9431158 82.0128099,22.2365368 L82.0128099,22.0551158 Z" id="Fill-33" fill="#000000"></path><polygon id="Fill-34" fill="#000000" points="114.399976 35.7524526 111.023835 35.7524526 111.023369 0.311873684 114.39951 0.311873684"></polygon><path d="M121.552535,35.7524526 L118.220621,35.7524526 L118.220155,8.76476842 L121.552535,8.76476842 L121.552535,35.7524526 Z M118.220621,6.32387368 L121.552535,6.32387368 L121.552535,0.311873684 L118.220621,0.311873684 L118.220621,6.32387368 Z" id="Fill-35" fill="#000000"></path><path d="M137.946,32.3626737 C140.744398,32.4972 143.099131,31.5493579 145.055356,29.4244105 C147.053946,27.2994632 147.986901,24.8585684 147.943139,22.0107789 C147.853289,19.2979895 146.875642,16.9925684 145.055356,15.0480947 C143.232743,13.1050421 141.055849,12.1553053 138.479516,12.1553053 C135.769106,12.1103053 133.502361,13.1050421 131.592691,15.0480947 C129.682089,16.9925684 128.749134,19.2979895 128.703976,22.0548316 C128.660681,24.7680947 129.50425,27.1630421 131.326398,29.1979895 C133.147615,31.2319895 135.324975,32.2717263 137.946,32.3626737 M147.319773,31.9103053 C144.699213,34.5776211 141.544207,35.8887789 137.901773,35.7533053 C134.391089,35.6623579 131.370625,34.3066737 128.926042,31.6838842 C126.482855,29.0620421 125.283608,25.9428316 125.283608,22.3267263 C125.283608,18.5746737 126.616467,15.3199895 129.237492,12.6526737 C131.858983,9.94035789 135.01399,8.6292 138.656424,8.76514737 C142.166176,8.90062105 145.188037,10.2567789 147.631224,12.9236211 C150.075807,15.5459368 151.319281,18.6651474 151.319281,22.2817263 C151.319281,25.9892526 149.985956,29.1979895 147.319773,31.9103053" id="Fill-36" fill="#000000"></path><path d="M163.979764,35.7075947 C157.803362,35.7075947 154.738206,33.0402789 154.738206,27.7061211 L154.738206,0.311542105 L158.159039,0.311542105 L158.159039,8.76585789 L163.979764,8.76585789 L163.979764,11.9750684 L158.159039,11.9750684 L158.159039,27.1187526 C158.159039,30.9608053 160.113868,32.8593316 163.979764,32.8593316 L163.979764,35.7075947 Z" id="Fill-37" fill="#000000"></path><path d="M189.258365,35.7524526 L185.882223,35.7524526 L185.882223,19.9039263 C185.882223,17.7344526 185.081949,15.8809263 183.527025,14.2988211 C181.972566,12.7162421 180.106191,11.9479263 178.017286,11.9929263 C175.885084,12.0384 174.063867,12.7617158 172.597862,14.2083474 C171.130926,15.6099789 170.420502,17.4175579 170.420502,19.6329789 L170.420502,35.7524526 L166.910749,35.7524526 L166.910749,0.311873684 L170.331117,0.311873684 L170.331117,12.8071895 C172.241719,10.2298737 174.730529,8.87418947 177.751924,8.73871579 C180.906,8.60324211 183.571252,9.64250526 185.837065,11.9024526 C188.10381,14.1633474 189.258365,16.9656632 189.258365,20.2662947 L189.258365,35.7524526 Z" id="Fill-38" fill="#000000"></path><path d="M215.380815,20.3480053 C214.892922,17.9644263 213.782129,16.0308474 212.0489,14.5463211 C210.316603,13.0622684 208.228163,12.2977421 205.784045,12.2527421 C203.340393,12.2077421 201.208657,12.9727421 199.38744,14.4563211 C197.564826,15.9403737 196.454499,17.9194263 195.965675,20.3480053 L215.380815,20.3480053 Z M218.091225,26.7332684 C217.157339,29.4773211 215.559584,31.6809 213.293305,33.2999526 C211.026561,34.9194789 208.540078,35.7294789 205.784045,35.7730579 C202.318984,35.8185316 199.253363,34.5594789 196.58811,31.9504263 C193.922393,29.2977947 192.544376,26.1942158 192.500615,22.5515842 C192.410764,18.7289526 193.743623,15.4008474 196.499191,12.6577421 C199.298055,9.86916316 202.54105,8.56511053 206.317095,8.79011053 C209.693702,9.01463684 212.626643,10.4091632 215.115453,13.0167947 C217.513482,15.5813211 218.71366,18.4594263 218.71366,21.6515842 L218.71366,23.4961105 L195.965675,23.4961105 C196.231968,26.0592158 197.298534,28.2173211 199.20867,29.8823211 C201.118806,31.5468474 203.340393,32.4004263 205.917657,32.3559 C209.916233,32.3109 212.760255,30.4227947 214.492087,26.7332684 L218.091225,26.7332684 Z" id="Fill-39" fill="#000000"></path><path d="M247.634881,28.2813158 C244.968232,33.2616316 240.836975,35.6831053 235.283474,35.6390526 C231.595417,35.5940526 228.440876,34.2923684 225.776089,31.7354211 C223.109906,29.1789474 221.776582,26.0388947 221.732355,22.3597895 C221.688128,18.6366316 222.976294,15.4961053 225.642012,12.8496316 C228.352888,10.2026842 231.55119,8.81194737 235.283474,8.76694737 C237.948726,8.72242105 240.436605,9.44005263 242.747111,10.8753158 C244.924471,12.2660526 246.524088,13.9708421 247.456111,16.0792105 L247.9454,17.2008947 L244.124197,17.2008947 C242.21313,13.9258421 239.325346,12.2215263 235.416155,12.1315263 C232.79513,12.087 230.484624,13.0291579 228.396183,15.003 C226.219755,17.0213684 225.152723,19.4442632 225.152723,22.2257368 C225.152723,25.0067368 226.174597,27.3841579 228.173652,29.403 C230.173173,31.3768421 232.573064,32.3644737 235.327235,32.3185263 C239.281585,32.2744737 242.21313,30.6596842 244.169355,27.5191579 L247.989627,27.5191579 L247.634881,28.2813158 Z" id="Fill-40" fill="#000000"></path><path d="M253.141408,21.9379263 C253.097181,24.6331895 253.941682,27.0144 255.76383,29.0356105 C257.584116,31.0577684 259.806168,32.0913474 262.382501,32.2254 C265.181364,32.3594526 267.536563,31.3713474 269.491391,29.3056105 C271.491843,27.1939263 272.423401,24.7227158 272.380106,21.8919789 C272.335413,19.1971895 271.357766,16.9064526 269.535618,14.9742947 C267.714867,13.0430842 265.492815,12.0990316 262.916016,12.0990316 C260.206072,12.0990316 257.939793,13.0430842 256.029191,14.9742947 C254.119521,16.9064526 253.186566,19.1971895 253.141408,21.9379263 L253.141408,21.9379263 Z M275.756247,35.7534 L272.468559,35.7534 L272.468559,31.0118211 C269.713922,34.2020842 266.337781,35.7292421 262.339205,35.5951895 C258.828521,35.4601895 255.851818,34.1120842 253.408632,31.5063474 C250.964979,28.9006105 249.72104,25.8012947 249.72104,22.2074526 C249.72104,18.4786105 251.053899,15.2438211 253.674924,12.5935579 C256.296415,9.89782105 259.451422,8.64018947 263.138548,8.77471579 C266.692993,8.90924211 269.713922,10.2573474 272.20087,12.9080842 C274.68968,15.5133474 275.888927,18.6131368 275.756247,22.1629263 L275.756247,22.3419789 L275.756247,35.7534 Z" id="Fill-41" fill="#000000"></path><path d="M271.453669,4.30891579 L272.142211,4.30891579 C272.472284,4.30891579 272.696677,4.25965263 272.816322,4.15923158 C272.936433,4.05975789 272.996023,3.92665263 272.996023,3.76228421 C272.996023,3.65617895 272.967159,3.56191579 272.909432,3.4776 C272.851704,3.39423158 272.77163,3.33170526 272.668744,3.29049474 C272.566324,3.24975789 272.376381,3.22891579 272.099381,3.22891579 L271.453669,3.22891579 L271.453669,4.30891579 Z M270.885702,6.32444211 L270.885702,2.74338947 L272.094726,2.74338947 C272.508131,2.74338947 272.807011,2.77654737 272.991833,2.84286316 C273.176655,2.90917895 273.324233,3.02475789 273.434102,3.18912632 C273.543506,3.35396842 273.59844,3.52923158 273.59844,3.71349474 C273.59844,3.97544211 273.506727,4.20328421 273.323768,4.39749474 C273.139877,4.59170526 272.896862,4.69970526 272.59286,4.72338947 C272.717627,4.77596842 272.817253,4.83944211 272.892206,4.91286316 C273.033732,5.05449474 273.207381,5.29086316 273.412222,5.62291579 L273.84099,6.32444211 L273.148257,6.32444211 L272.835875,5.75981053 C272.590067,5.31549474 272.392675,5.03838947 272.241838,4.92612632 C272.138487,4.84417895 271.986719,4.80296842 271.787465,4.80296842 L271.453669,4.80296842 L271.453669,6.32444211 L270.885702,6.32444211 Z M272.32005,1.70791579 C271.861022,1.70791579 271.413632,1.82728421 270.978811,2.06696842 C270.544457,2.30665263 270.203677,2.64912632 269.958334,3.09486316 C269.712991,3.53917895 269.590087,4.00338947 269.590087,4.4856 C269.590087,4.96496842 269.710664,5.42396842 269.951816,5.86307368 C270.192969,6.30265263 270.530956,6.6456 270.963914,6.89049474 C271.397337,7.13633684 271.849383,7.25902105 272.32005,7.25902105 C272.791183,7.25902105 273.243228,7.13633684 273.676186,6.89049474 C274.110075,6.6456 274.446665,6.30265263 274.685956,5.86307368 C274.925712,5.42396842 275.045823,4.96496842 275.045823,4.4856 C275.045823,4.00338947 274.92385,3.53917895 274.679904,3.09486316 C274.435492,2.64912632 274.095643,2.30665263 273.658961,2.06696842 C273.22321,1.82728421 272.776751,1.70791579 272.32005,1.70791579 L272.32005,1.70791579 Z M272.32005,1.15654737 C272.868929,1.15654737 273.404773,1.29912632 273.927581,1.58617895 C274.45039,1.87275789 274.857743,2.28344211 275.14964,2.81633684 C275.441537,3.35017895 275.587719,3.90628421 275.587719,4.4856 C275.587719,5.05875789 275.443865,5.61012632 275.156158,6.13875789 C274.868916,6.66738947 274.466218,7.07902105 273.947134,7.37128421 C273.428516,7.66402105 272.886154,7.81038947 272.32005,7.81038947 C271.754411,7.81038947 271.211119,7.66402105 270.692966,7.37128421 C270.174348,7.07902105 269.770719,6.66738947 269.48208,6.13875789 C269.192976,5.61012632 269.048657,5.05875789 269.048657,4.4856 C269.048657,3.90628421 269.194838,3.35017895 269.488132,2.81633684 C269.781427,2.28344211 270.189245,1.87275789 270.712519,1.58617895 C271.235327,1.29912632 271.771637,1.15654737 272.32005,1.15654737 L272.32005,1.15654737 Z" id="Fill-42" fill="#000000"></path><polygon id="Fill-43" fill="#EE0000" points="28.8929156 0.347352632 28.8929156 35.6974579 32.5670064 35.6974579 36.2410971 35.6974579 36.2410971 0.347352632"></polygon><polygon id="Fill-44" fill="#EE0000" points="17.9919182 3.33658421 12.6139282 34.3695316 16.2321534 35.0189526 19.8503787 35.6679 25.2283686 4.63495263"></polygon><polygon id="Fill-45" fill="#EE0000" points="4.50336824 7.78476316 0.000139663866 34.4304474 3.62069261 35.0637632 7.24171109 35.6975526 11.7454052 9.05186842"></polygon></g></g></g></g></svg>